<?xml version="1.0" encoding="iso-8859-1"?>
<!-- Generator: Adobe Illustrator 16.0.0, SVG Export Plug-In . SVG Version: 6.00 Build 0)  -->
<!DOCTYPE svg PUBLIC "-//W3C//DTD SVG 1.1//EN" "http://www.w3.org/Graphics/SVG/1.1/DTD/svg11.dtd">
<svg version="1.1" id="Capa_1" xmlns="http://www.w3.org/2000/svg" xmlns:xlink="http://www.w3.org/1999/xlink" x="0px" y="0px"
	 width="56.613px" height="56.613px" viewBox="0 0 56.613 56.613" style="enable-background:new 0 0 56.613 56.613;"
	 xml:space="preserve">
<g>
	<path d="M55.163,13.172c-0.031-0.877-0.559-1.662-1.362-2.02L29.24,0.2c-0.597-0.267-1.278-0.267-1.873,0L2.82,11.147
		c-0.029,0.014-0.059,0.026-0.087,0.041c-0.507,0.248-0.883,0.658-1.095,1.141c-0.04,0.093-0.075,0.188-0.103,0.282
		c-0.065,0.225-0.097,0.458-0.091,0.695V39.16c0,0.752,0.367,1.455,0.983,1.885l24.56,15.153c0.004,0.003,0.008,0.003,0.011,0.007
		c0.171,0.117,0.361,0.205,0.561,0.273c0.044,0.015,0.086,0.027,0.131,0.042c0.197,0.054,0.399,0.093,0.614,0.093
		c0.189,0,0.371-0.03,0.547-0.072c0.048-0.012,0.094-0.028,0.142-0.045c0.141-0.045,0.274-0.102,0.402-0.17
		c0.026-0.016,0.055-0.02,0.083-0.035l24.561-14.562c0.698-0.414,1.126-1.166,1.126-1.979
		C55.164,39.751,55.177,13.599,55.163,13.172z M28.303,4.819l19.328,8.619L40.5,17.241L22.615,7.356L28.303,4.819z M26.004,49.904
		L6.043,37.961V17.086L26.004,27.73V49.904z M28.303,23.745L8.977,13.438l9.064-4.042l18.253,10.089L28.303,23.745z M50.565,38.441
		L30.604,50.278V27.73l19.961-10.645V38.441z"/>
</g>
<g>
</g>
<g>
</g>
<g>
</g>
<g>
</g>
<g>
</g>
<g>
</g>
<g>
</g>
<g>
</g>
<g>
</g>
<g>
</g>
<g>
</g>
<g>
</g>
<g>
</g>
<g>
</g>
<g>
</g>
</svg>
