<?xml version="1.0" encoding="iso-8859-1"?>
<!-- Generator: Adobe Illustrator 19.0.0, SVG Export Plug-In . SVG Version: 6.00 Build 0)  -->
<svg version="1.1" id="Layer_1" xmlns="http://www.w3.org/2000/svg" xmlns:xlink="http://www.w3.org/1999/xlink" x="0px" y="0px"
	 viewBox="0 0 511.999 511.999" style="enable-background:new 0 0 511.999 511.999;" xml:space="preserve">
<g>
	<g>
		<path d="M226.865,13.09L108.573,62.721l103.715,34.303v94.84L0,280.934V404.6l285.134,94.309l226.865-95.185v-91.628v-32.038
			v-172.66L226.865,13.09z M195.235,59.347l32.894-13.803l225.331,74.53l-32.895,13.801L242.706,75.047l-1.258-0.417l-9.174-3.035
			L195.235,59.347z M212.288,224.85v69.58l-61.017,25.601L58.539,289.36L212.288,224.85z M269.293,461.632L30.417,382.622v-70.526
			l238.876,79.009V461.632z M283.87,363.889l-88.636-29.317l32.895-13.802l88.637,29.317L283.87,363.889z M242.707,293.553v-70.528
			l210.754,69.708l-93.996,39.439L242.707,293.553z M481.582,383.499l-181.871,76.309v-69.579l181.871-76.308V383.499z
			 M481.582,269.997l-238.876-79.01v-83.902l179.123,59.246l59.753-25.07V269.997z"/>
	</g>
</g>
<g>
</g>
<g>
</g>
<g>
</g>
<g>
</g>
<g>
</g>
<g>
</g>
<g>
</g>
<g>
</g>
<g>
</g>
<g>
</g>
<g>
</g>
<g>
</g>
<g>
</g>
<g>
</g>
<g>
</g>
</svg>
