<?xml version="1.0" encoding="iso-8859-1"?>
<!-- Generator: Adobe Illustrator 16.0.0, SVG Export Plug-In . SVG Version: 6.00 Build 0)  -->
<!DOCTYPE svg PUBLIC "-//W3C//DTD SVG 1.1//EN" "http://www.w3.org/Graphics/SVG/1.1/DTD/svg11.dtd">
<svg version="1.1" id="Capa_1" xmlns="http://www.w3.org/2000/svg" xmlns:xlink="http://www.w3.org/1999/xlink" x="0px" y="0px"
	 width="342.65px" height="342.65px" viewBox="0 0 342.65 342.65" style="enable-background:new 0 0 342.65 342.65;"
	 xml:space="preserve">
<g>
	<g>
		<path d="M32.677,204.973c0,32.618,23.428,68.371,53.337,81.39l54.115,23.562c11.893,5.176,26.184,7.668,40.775,7.668
			c21.642,0,43.962-5.506,60.114-15.949l31.808-20.59c27.069-17.51,48.272-56.396,48.272-88.529v-60.756l8.179-4.963
			c7.914-4.795,12.634-11.842,13.294-19.843c0.655-7.999-2.846-15.729-9.865-21.756l-20.975-18.008
			c-0.055-0.051-0.12-0.058-0.181-0.1c-0.534-0.429-1.123-0.805-1.802-1.039l-0.132-0.048l-0.018-0.009L203.346,28.957
			c-14.922-5.2-40.247-5.2-55.172,0L41.76,66.067c-0.64,0.222-1.21,0.552-1.727,0.951c-0.018,0.012-0.036,0.012-0.057,0.033
			L10.258,90.458c-7.434,5.849-11.025,13.196-10.121,20.693c0.892,7.376,6.272,13.829,14.76,17.684l17.768,8.08v68.058H32.677z
			 M308.802,192.524c0,27.911-19.131,62.997-42.652,78.213l-31.808,20.584c-9.848,6.365-22.596,10.611-35.962,12.623V147.342
			l16.236,13.964c13.403,11.517,35.759,13.39,50.873,4.207l43.312-26.28V192.524z M330.316,105.96
			c-0.33,3.966-2.96,7.632-7.415,10.337l-9.151,5.546c-1.447,0.297-2.672,1.039-3.562,2.158L259.1,154.992
			c-10.478,6.365-27.184,4.969-36.479-3.015l-17.931-15.414l102.28-57.226l17.714,15.204
			C328.647,97.943,330.642,101.994,330.316,105.96z M292.799,73.18l-99.145,55.476l-11.752-4.972V37.565
			c6.545,0.387,12.73,1.384,17.39,3.008L292.799,73.18z M152.221,40.58c4.66-1.63,10.845-2.627,17.387-3.005v80.912L60.864,72.438
			L152.221,40.58z M19.992,117.636c-4.489-2.042-7.272-4.942-7.635-7.968c-0.363-3.018,1.648-6.503,5.521-9.56l26.859-21.161
			l139.092,58.901l-19.074,21.914c-7.999,9.193-24.127,12.686-35.233,7.65l-88.297-40.127l-0.018-0.006L19.992,117.636z
			 M124.434,178.612c5.146,2.342,10.866,3.452,16.646,3.452c12.364,0,25.013-5.098,32.957-14.229l12.046-13.841v151.138
			c-14.715,0.661-29.361-1.405-41.043-6.485l-54.112-23.551c-25.34-11.037-45.952-42.49-45.952-70.124v-62.471L124.434,178.612z"/>
	</g>
</g>
<g>
</g>
<g>
</g>
<g>
</g>
<g>
</g>
<g>
</g>
<g>
</g>
<g>
</g>
<g>
</g>
<g>
</g>
<g>
</g>
<g>
</g>
<g>
</g>
<g>
</g>
<g>
</g>
<g>
</g>
</svg>
